{
  "accessors": [
    {
      "bufferView": 1,
      "componentType": 5126,
      "count": 46082,
      "max": [
        0.9935951828956604,
        0.9935951828956604,
        27.172773361206055
      ],
      "min": [
        -0.9935951232910156,
        -0.9935951232910156,
        3.561645746231079
      ],
      "type": "VEC3"
    },
    {
      "bufferView": 1,
      "byteOffset": 552984,
      "componentType": 5126,
      "count": 46082,
      "type": "VEC3"
    },
    {
      "bufferView": 0,
      "componentType": 5125,
      "count": 276480,
      "type": "SCALAR"
    },
    {
      "bufferView": 1,
      "byteOffset": 1105968,
      "componentType": 5126,
      "count": 31746,
      "max": [
        0.5672023296356201,
        0.5812643766403198,
        39.71343231201172
      ],
      "min": [
        -0.5672019720077515,
        -0.5812652111053467,
        26.79153823852539
      ],
      "type": "VEC3"
    },
    {
      "bufferView": 1,
      "byteOffset": 1486920,
      "componentType": 5126,
      "count": 31746,
      "type": "VEC3"
    },
    {
      "bufferView": 0,
      "byteOffset": 1105920,
      "componentType": 5125,
      "count": 190464,
      "type": "SCALAR"
    }
  ],
  "asset": {
    "generator": "fab-model-conversion",
    "version": "2.0"
  },
  "bufferViews": [
    {
      "buffer": 0,
      "byteLength": 1867776,
      "target": 34963
    },
    {
      "buffer": 0,
      "byteLength": 1867872,
      "byteOffset": 1867776,
      "byteStride": 12,
      "target": 34962
    }
  ],
  "buffers": [
    {
      "byteLength": 3735648,
      "uri": "scene.bin"
    }
  ],
  "materials": [
    {
      "doubleSided": true,
      "name": "bomb",
      "pbrMetallicRoughness": {
        "baseColorFactor": [
          0.00466899993,
          0.00595600018,
          0.00983100012,
          1.0
        ],
        "metallicFactor": 0.0,
        "roughnessFactor": 0.998535991
      }
    }
  ],
  "meshes": [
    {
      "name": "Cylinder_bomb_0",
      "primitives": [
        {
          "attributes": {
            "NORMAL": 1,
            "POSITION": 0
          },
          "indices": 2,
          "material": 0,
          "mode": 4
        }
      ]
    },
    {
      "name": "Cylinder.001_bomb_0",
      "primitives": [
        {
          "attributes": {
            "NORMAL": 4,
            "POSITION": 3
          },
          "indices": 5,
          "material": 0,
          "mode": 4
        }
      ]
    }
  ],
  "nodes": [
    {
      "children": [
        1
      ],
      "matrix": [
        1.0,
        0.0,
        0.0,
        0.0,
        0.0,
        2.220446049250313e-16,
        -1.0,
        0.0,
        0.0,
        1.0,
        2.220446049250313e-16,
        0.0,
        0.0,
        0.0,
        0.0,
        1.0
      ],
      "name": "FAB converted model"
    },
    {
      "children": [
        2
      ],
      "matrix": [
        0.009999999776482582,
        0.0,
        0.0,
        0.0,
        0.0,
        0.0,
        0.009999999776482582,
        0.0,
        0.0,
        -0.009999999776482582,
        0.0,
        0.0,
        0.0,
        0.0,
        0.0,
        1.0
      ],
      "name": "4_chess.fbx"
    },
    {
      "children": [
        3,
        5,
        7
      ],
      "name": "RootNode"
    },
    {
      "children": [
        4
      ],
      "matrix": [
        -22.98807052894944,
        -4.643500576518314,
        -95.75217289124267,
        0.0,
        -1.0840251450288252,
        98.4729836002096,
        -4.515194763475864,
        0.0,
        95.8585708233834,
        2.17831014183934e-05,
        -23.013615477373836,
        0.0,
        272.5057373046875,
        -40.88289260864258,
        1150.883544921875,
        1.0
      ],
      "name": "Camera"
    },
    {
      "name": "Object_4"
    },
    {
      "children": [
        6
      ],
      "matrix": [
        202.87950970615546,
        -45.44796287986336,
        -8.823448247350475,
        0.0,
        -18.215676925698514,
        -42.94618408013149,
        -197.62920060980372,
        0.0,
        3.758299461252099,
        17.586227403357167,
        -4.168014269015683,
        0.0,
        -82.56900024414063,
        -445.21588134765625,
        42.48078918457031,
        1.0
      ],
      "name": "Cylinder"
    },
    {
      "mesh": 0,
      "name": "Cylinder_bomb_0"
    },
    {
      "children": [
        8
      ],
      "matrix": [
        202.87950970615546,
        -45.44796287986336,
        -8.823448247350475,
        0.0,
        -18.215676925698514,
        -42.94618408013149,
        -197.62920060980372,
        0.0,
        3.758299461252099,
        17.586227403357167,
        -4.168014269015683,
        0.0,
        -82.56900024414063,
        -445.21588134765625,
        42.48078918457031,
        1.0
      ],
      "name": "Cylinder.001"
    },
    {
      "mesh": 1,
      "name": "Cylinder.001_bomb_0"
    }
  ],
  "scene": 0,
  "scenes": [
    {
      "name": "FAB converted",
      "nodes": [
        0
      ]
    }
  ]
}
